<?xml version="1.0" encoding="utf-8"?>
<!-- Generator: Adobe Illustrator 24.2.0, SVG Export Plug-In . SVG Version: 6.00 Build 0)  -->
<svg version="1.1" id="Layer_1" xmlns="http://www.w3.org/2000/svg" xmlns:xlink="http://www.w3.org/1999/xlink" x="0px" y="0px"
	 viewBox="0 0 36 36" style="enable-background:new 0 0 36 36;" xml:space="preserve">
<style type="text/css">
	.st0{display:none;}
	.st1{display:none;fill:#2C2D63;}
	.st2{fill:#2B2D63;}
	.st3{fill:none;}
</style>
<g class="st0">
</g>
<g class="st0">
</g>
<circle class="st1" cx="18" cy="18" r="13"/>
<path class="st2" d="M9.8,19.4c-0.8,0-1.4,0.6-1.4,1.4s0.6,1.4,1.4,1.4c0.8,0,1.4-0.6,1.4-1.4S10.5,19.4,9.8,19.4z M9.8,24.8
	c-0.8,0-1.4,0.6-1.4,1.4s0.6,1.4,1.4,1.4c0.8,0,1.4-0.6,1.4-1.4S10.5,24.8,9.8,24.8z M9.8,13.9c-0.8,0-1.4,0.6-1.4,1.4
	s0.6,1.4,1.4,1.4c0.8,0,1.4-0.6,1.4-1.4S10.5,13.9,9.8,13.9z M5.7,14.6c-0.4,0-0.7,0.3-0.7,0.7S5.3,16,5.7,16c0.4,0,0.7-0.3,0.7-0.7
	C6.4,14.9,6.1,14.6,5.7,14.6z M9.8,8.4C9,8.4,8.4,9,8.4,9.8s0.6,1.4,1.4,1.4c0.8,0,1.4-0.6,1.4-1.4C11.2,9,10.5,8.4,9.8,8.4z
	 M30.3,15.9c0.4,0,0.7-0.3,0.7-0.7s-0.3-0.7-0.7-0.7c-0.4,0-0.7,0.3-0.7,0.7C29.6,15.6,29.9,15.9,30.3,15.9z M20.7,11.2
	c0.8,0,1.4-0.6,1.4-1.4c0-0.8-0.6-1.4-1.4-1.4S19.3,9,19.3,9.8C19.4,10.5,20,11.2,20.7,11.2z M20.7,6.4c0.4,0,0.7-0.3,0.7-0.7
	S21.1,5,20.7,5S20,5.3,20,5.7S20.4,6.4,20.7,6.4z M5.7,20.1c-0.4,0-0.7,0.3-0.7,0.7c0,0.4,0.3,0.7,0.7,0.7c0.4,0,0.7-0.3,0.7-0.7
	C6.4,20.4,6.1,20.1,5.7,20.1z M15.3,29.6c-0.4,0-0.7,0.3-0.7,0.7c0,0.4,0.3,0.7,0.7,0.7s0.7-0.3,0.7-0.7
	C15.9,29.9,15.6,29.6,15.3,29.6z M15.3,6.4c0.4,0,0.7-0.3,0.7-0.7S15.6,5,15.3,5s-0.7,0.3-0.7,0.7S14.9,6.4,15.3,6.4z M15.3,11.2
	c0.8,0,1.4-0.6,1.4-1.4c0-0.8-0.6-1.4-1.4-1.4S13.9,9,13.9,9.8C13.9,10.5,14.5,11.2,15.3,11.2z M15.3,18.7c-1.1,0-2.1,0.9-2.1,2.1
	c0,1.1,0.9,2.1,2.1,2.1s2.1-0.9,2.1-2.1C17.3,19.6,16.4,18.7,15.3,18.7z M26.2,19.4c-0.8,0-1.4,0.6-1.4,1.4s0.6,1.4,1.4,1.4
	s1.4-0.6,1.4-1.4S27,19.4,26.2,19.4z M26.2,24.8c-0.8,0-1.4,0.6-1.4,1.4s0.6,1.4,1.4,1.4s1.4-0.6,1.4-1.4S27,24.8,26.2,24.8z
	 M26.2,13.9c-0.8,0-1.4,0.6-1.4,1.4s0.6,1.4,1.4,1.4s1.4-0.6,1.4-1.4S27,13.9,26.2,13.9z M26.2,8.4c-0.8,0-1.4,0.6-1.4,1.4
	c0,0.8,0.6,1.4,1.4,1.4s1.4-0.6,1.4-1.4S27,8.4,26.2,8.4z M30.3,20.1c-0.4,0-0.7,0.3-0.7,0.7c0,0.4,0.3,0.7,0.7,0.7
	c0.4,0,0.7-0.3,0.7-0.7S30.7,20.1,30.3,20.1z M20.7,24.8c-0.8,0-1.4,0.6-1.4,1.4s0.6,1.4,1.4,1.4s1.4-0.6,1.4-1.4
	S21.5,24.8,20.7,24.8z M20.7,29.6c-0.4,0-0.7,0.3-0.7,0.7c0,0.4,0.3,0.7,0.7,0.7c0.4,0,0.7-0.3,0.7-0.7
	C21.4,29.9,21.1,29.6,20.7,29.6z M15.3,13.2c-1.1,0-2.1,0.9-2.1,2.1s0.9,2.1,2.1,2.1s2.1-0.9,2.1-2.1S16.4,13.2,15.3,13.2z
	 M15.3,24.8c-0.8,0-1.4,0.6-1.4,1.4s0.6,1.4,1.4,1.4c0.8,0,1.4-0.6,1.4-1.4S16,24.8,15.3,24.8z M20.7,18.7c-1.1,0-2.1,0.9-2.1,2.1
	c0,1.1,0.9,2.1,2.1,2.1c1.1,0,2.1-0.9,2.1-2.1C22.8,19.6,21.9,18.7,20.7,18.7z M20.7,13.2c-1.1,0-2.1,0.9-2.1,2.1s0.9,2.1,2.1,2.1
	c1.1,0,2.1-0.9,2.1-2.1S21.9,13.2,20.7,13.2z"/>
<path class="st3" d="M2,2h32v32H2V2z"/>
</svg>
