<?xml version="1.0" encoding="utf-8"?>
<!-- Generator: Adobe Illustrator 24.2.0, SVG Export Plug-In . SVG Version: 6.00 Build 0)  -->
<svg version="1.1" id="Layer_1" xmlns="http://www.w3.org/2000/svg" xmlns:xlink="http://www.w3.org/1999/xlink" x="0px" y="0px"
	 viewBox="0 0 24 24" style="enable-background:new 0 0 24 24;" xml:space="preserve">
<style type="text/css">
	.st0{fill:none;}
	.st1{display:none;fill:#2D2D63;}
	.st2{fill:#2D2D63;}
</style>
<path class="st0" d="M0,0h24v24H0V0z"/>
<path class="st1" d="M16.6,3c-0.5-0.5-1.3-0.5-1.8,0l-8.3,8.3c-0.4,0.4-0.4,1,0,1.4l8.3,8.3c0.5,0.5,1.3,0.5,1.8,0s0.5-1.3,0-1.8
	L9.4,12l7.3-7.2C17.1,4.3,17.1,3.5,16.6,3z"/>
<path class="st2" d="M19.9,18c0.3,0.3,0.3,0.7,0,1c0,0,0,0,0,0l-0.9,0.9c-0.3,0.3-0.7,0.3-1,0c0,0,0,0,0,0l-6-6l-6,6
	c-0.3,0.3-0.7,0.3-1,0c0,0,0,0,0,0l-0.9-0.9c-0.3-0.3-0.3-0.7,0-1c0,0,0,0,0,0l6-6l-6-6c-0.3-0.3-0.3-0.7,0-1c0,0,0,0,0,0l0.9-0.9
	c0.3-0.3,0.7-0.3,1,0c0,0,0,0,0,0l6,6l6-6c0.3-0.3,0.7-0.3,1,0c0,0,0,0,0,0l0.9,0.9c0.3,0.3,0.3,0.7,0,1c0,0,0,0,0,0l-6,6L19.9,18z"
	/>
</svg>
