<?xml version="1.0" encoding="utf-8"?>
<!-- Generator: Adobe Illustrator 24.2.0, SVG Export Plug-In . SVG Version: 6.00 Build 0)  -->
<svg version="1.1" id="Layer_1" xmlns="http://www.w3.org/2000/svg" xmlns:xlink="http://www.w3.org/1999/xlink" x="0px" y="0px"
	 viewBox="0 0 36 36" style="enable-background:new 0 0 36 36;" xml:space="preserve">
<style type="text/css">
	.st0{fill:#2D2D63;}
</style>
<path class="st0" d="M25.5,13.8l-18,18c-0.3,0.3-0.8,0.3-1.1,0l0,0l-2.2-2.2c-0.3-0.3-0.3-0.8,0-1.1l0,0l18-18
	c0.3-0.3,0.8-0.3,1.1,0l0,0l2.2,2.2C25.8,13,25.9,13.4,25.5,13.8L25.5,13.8z M12.4,8.7c1.3,0.6,2.3,1.6,3,2.9
	c0.1,0.2,0.3,0.4,0.6,0.4l0,0c0.3,0,0.5-0.2,0.6-0.4c0.6-1.3,1.7-2.3,3-2.9C19.8,8.6,20,8.4,20,8.2V8.1c0-0.2-0.2-0.5-0.4-0.6
	c-1.3-0.6-2.3-1.6-3-2.9c-0.2-0.4-0.6-0.5-1-0.3c-0.1,0.1-0.3,0.2-0.3,0.3c-0.6,1.3-1.7,2.3-3,2.9C12.2,7.6,12,7.8,12,8.1v0.1
	C12,8.4,12.2,8.6,12.4,8.7z M31.7,6.6c-1-0.5-1.8-1.3-2.3-2.3C29.3,4.1,29.1,4,28.9,4l0,0c-0.2,0-0.4,0.1-0.5,0.3
	c-0.5,1-1.3,1.8-2.3,2.3l0,0c-0.2,0.1-0.3,0.3-0.3,0.5l0,0c0,0.2,0.1,0.4,0.3,0.5l0,0c1,0.5,1.8,1.3,2.3,2.3
	c0.1,0.2,0.3,0.3,0.5,0.3l0,0c0.2,0,0.4-0.1,0.5-0.3c0.5-1,1.3-1.8,2.3-2.3C31.9,7.5,32,7.3,32,7.1l0,0C32,6.9,31.9,6.7,31.7,6.6z
	 M24.4,20.7c1.3,0.6,2.3,1.6,3,2.9c0.1,0.2,0.3,0.4,0.6,0.4l0,0c0.3,0,0.5-0.2,0.6-0.4c0.6-1.3,1.7-2.3,3-2.9
	c0.2-0.1,0.4-0.3,0.4-0.6V20c0-0.2-0.2-0.5-0.4-0.6c-1.3-0.6-2.3-1.6-3-2.9c-0.2-0.4-0.6-0.5-1-0.3c-0.1,0.1-0.3,0.2-0.3,0.3
	c-0.6,1.3-1.7,2.3-3,2.9c-0.2,0.1-0.4,0.3-0.4,0.6v0.1C24,20.4,24.2,20.6,24.4,20.7z"/>
</svg>
