<svg id="Layer_1" data-name="Layer 1" xmlns="http://www.w3.org/2000/svg" viewBox="0 0 1024 1024"><defs><style>.cls-1{fill:#ed2290;}.cls-2{fill:#fff;}</style></defs><path class="cls-1" d="M512,282.22A166.59,166.59,0,0,0,344.86,448.29v1a165.82,165.82,0,0,0,30.55,97.14L512,741.78,648,546.47A167.12,167.12,0,0,0,512,282.22Z"/><path class="cls-2" d="M554,521.22v53.26A41.4,41.4,0,0,1,512.73,616h-.32A41.41,41.41,0,0,1,471,574.59V521.22a83.72,83.72,0,0,1-30.8-113.87c22.3-39.2,72.47-53.6,112.05-32A83.69,83.69,0,0,1,554,521.22Z"/><path class="cls-1" d="M511.87,596.5a21.34,21.34,0,0,1-21.37-21.11V449.61a21.34,21.34,0,0,1,21.37-21.11h.26a21.39,21.39,0,0,1,21.37,21.11V575.39a21.34,21.34,0,0,1-21.37,21.11Z"/><path class="cls-2" d="M512.13,429A21,21,0,0,1,533,449.61V575.39A20.79,20.79,0,0,1,512.13,596h-.26A20.79,20.79,0,0,1,491,575.39V449.61A20.79,20.79,0,0,1,511.87,429h.26m0-1h-.27A21.84,21.84,0,0,0,490,449.61V575.39A21.84,21.84,0,0,0,511.87,597h.26A21.84,21.84,0,0,0,534,575.39V449.61a21.64,21.64,0,0,0-6.49-15.21,22.1,22.1,0,0,0-15.37-6.4Z"/></svg>