<svg id="Layer_1" data-name="Layer 1" xmlns="http://www.w3.org/2000/svg" viewBox="0 0 306 102"><defs><style>.cls-1{fill:#ed2290;}.cls-2{fill:#fff;}</style></defs><path class="cls-1" d="M17.07,84a7,7,0,0,1-4.87-12,6.79,6.79,0,0,1,4.9-2h6.57a5.93,5.93,0,0,0,5.83-5.85V51.79a5.62,5.62,0,0,0-1.68-4.07A5.84,5.84,0,0,0,23.69,46h-.4a5.75,5.75,0,0,0-5.67,5.7,8.31,8.31,0,0,0,1.57,3.93,9.14,9.14,0,0,1,1.72,4.46,6.51,6.51,0,0,1-2.08,4.86,6.75,6.75,0,0,1-4.82,2h-.12c-3.14,0-5.77-1.9-7.8-5.65a20,20,0,0,1-2.5-9.58A18.59,18.59,0,0,1,9.41,37.86a19.67,19.67,0,0,1,14.14-5.68,19.61,19.61,0,0,1,14.14,5.69A18.68,18.68,0,0,1,43.5,51.7V64.54a18.68,18.68,0,0,1-5.81,13.81A19.59,19.59,0,0,1,23.55,84Z"/><path class="cls-2" d="M23.55,32.68a19.06,19.06,0,0,1,13.79,5.54A18.15,18.15,0,0,1,43,51.7V64.54A18.05,18.05,0,0,1,37.34,78,19,19,0,0,1,23.55,83.5H17.07a6.43,6.43,0,0,1-4.55-1.87,6.54,6.54,0,0,1,0-9.23,6.34,6.34,0,0,1,4.55-1.9h6.57a6.28,6.28,0,0,0,4.43-1.87A6.16,6.16,0,0,0,30,64.15V51.79a6.3,6.3,0,0,0-6.3-6.29h-.41a6.27,6.27,0,0,0-6.17,6.21,8.66,8.66,0,0,0,1.65,4.19,8.76,8.76,0,0,1,1.64,4.19,6,6,0,0,1-1.92,4.49A6.24,6.24,0,0,1,14,66.43h-.12q-4.43,0-7.36-5.39A19.28,19.28,0,0,1,4.09,51.7,18,18,0,0,1,9.75,38.22a19.11,19.11,0,0,1,13.8-5.54m0-1A20.17,20.17,0,0,0,9.06,37.5a19.08,19.08,0,0,0-6,14.2,20.46,20.46,0,0,0,2.56,9.82c2.13,3.92,4.9,5.91,8.24,5.91H14a7.25,7.25,0,0,0,5.19-2.15,7,7,0,0,0,2.21-5.21,9.42,9.42,0,0,0-1.8-4.71,7.57,7.57,0,0,1-1.49-3.66A5.05,5.05,0,0,1,19.7,48a5.11,5.11,0,0,1,3.59-1.5h.41a5.39,5.39,0,0,1,3.77,1.57A5.16,5.16,0,0,1,29,51.78V64.15a5.18,5.18,0,0,1-1.59,3.75,5.26,5.26,0,0,1-3.74,1.6H17.1a7.27,7.27,0,0,0-5.26,2.2A7.53,7.53,0,0,0,9.63,77a7.43,7.43,0,0,0,7.44,7.49h6.48A20.09,20.09,0,0,0,38,78.71a19.17,19.17,0,0,0,6-14.17V51.7a19.17,19.17,0,0,0-6-14.19,20.07,20.07,0,0,0-14.49-5.83Z"/><path class="cls-1" d="M52.5,71a6.91,6.91,0,0,1-4.94-2,6.65,6.65,0,0,1-2.06-4.92V25.49a6.66,6.66,0,0,1,2.07-4.92,7,7,0,0,1,9.87,0A6.65,6.65,0,0,1,59.5,25.5V64.09A6.66,6.66,0,0,1,57.43,69,6.9,6.9,0,0,1,52.5,71Z"/><path class="cls-2" d="M52.5,19a6.48,6.48,0,0,1,4.59,1.89A6.15,6.15,0,0,1,59,25.49v38.6a6.16,6.16,0,0,1-1.91,4.56,6.52,6.52,0,0,1-9.18,0A6.16,6.16,0,0,1,46,64.09V25.49a6.15,6.15,0,0,1,1.91-4.56A6.48,6.48,0,0,1,52.5,19m0-1a7.39,7.39,0,0,0-5.29,2.18A7.17,7.17,0,0,0,45,25.5V64.09a7.2,7.2,0,0,0,2.22,5.28,7.5,7.5,0,0,0,10.57,0A7.17,7.17,0,0,0,60,64.07V25.49a7.17,7.17,0,0,0-2.22-5.28A7.38,7.38,0,0,0,52.5,18Z"/><path class="cls-1" d="M80.94,70.45a18.94,18.94,0,0,1-13.8-5.64A18.67,18.67,0,0,1,61.47,51.1a18.65,18.65,0,0,1,5.67-13.69,19.77,19.77,0,0,1,27.57,0,18.74,18.74,0,0,1,5.64,13.69A19.26,19.26,0,0,1,80.94,70.45Zm-.11-23.89a5.57,5.57,0,0,0-4,1.64,5.4,5.4,0,0,0-1.67,4A5.79,5.79,0,0,0,80.88,58h.17A5.34,5.34,0,0,0,85,56.32a5.53,5.53,0,0,0,1.67-4.07,5.73,5.73,0,0,0-5.7-5.69Z"/><path class="cls-2" d="M80.94,32.31a18.31,18.31,0,0,1,13.42,5.46A18.12,18.12,0,0,1,99.85,51.1,18.75,18.75,0,0,1,80.94,70a18.4,18.4,0,0,1-13.45-5.49A18.13,18.13,0,0,1,62,51.1a18,18,0,0,1,5.52-13.33,18.38,18.38,0,0,1,13.45-5.46M80.88,58.5h.17a5.81,5.81,0,0,0,4.28-1.84,6,6,0,0,0,1.81-4.42,6.21,6.21,0,0,0-6.2-6.18h-.11a6.09,6.09,0,0,0-4.34,1.78,5.89,5.89,0,0,0-1.81,4.4,6.25,6.25,0,0,0,6.2,6.26m.06-27.19a19.41,19.41,0,0,0-14.15,5.75A19.11,19.11,0,0,0,61,51.1a19.17,19.17,0,0,0,5.82,14.07,20.16,20.16,0,0,0,28.27,0,19.23,19.23,0,0,0,5.79-14.06A19.7,19.7,0,0,0,80.94,31.31Zm0,26.19a5.28,5.28,0,0,1-5.21-5.26,4.91,4.91,0,0,1,1.5-3.68,5.11,5.11,0,0,1,3.65-1.5h.09a5.24,5.24,0,0,1,5.22,5.19,5,5,0,0,1-1.51,3.69l0,0a4.83,4.83,0,0,1-3.55,1.52h-.16Z"/><path class="cls-1" d="M120.91,70.42a18.92,18.92,0,0,1-13.76-5.62,18.58,18.58,0,0,1-5.65-13.65V38.67a6.68,6.68,0,0,1,2-4.93,7.08,7.08,0,0,1,5-2h0a7.22,7.22,0,0,1,5,2,6.72,6.72,0,0,1,2,5V51.26a5.17,5.17,0,0,0,1.6,3.84,5.39,5.39,0,0,0,3.84,1.6h.11a5.43,5.43,0,0,0,5.45-5.34V38.62a7.06,7.06,0,0,1,7-7,6.92,6.92,0,0,1,4.94,2,6.67,6.67,0,0,1,2.06,4.91V51.24a5.41,5.41,0,0,0,5.34,5.48H146a5.43,5.43,0,0,0,3.91-1.59,5.3,5.3,0,0,0,1.63-3.9V38.68a6.66,6.66,0,0,1,2.07-4.92,7,7,0,0,1,9.87,0,6.65,6.65,0,0,1,2.06,4.92l-.06,12.46a18.58,18.58,0,0,1-5.65,13.65A18.93,18.93,0,0,1,146,70.42h-.12a19,19,0,0,1-12.46-4.62,18.61,18.61,0,0,1-12.29,4.62Z"/><path class="cls-2" d="M133.5,32.09A6.49,6.49,0,0,1,138.09,34,6.28,6.28,0,0,1,140,38.53V51.24a5.91,5.91,0,0,0,5.84,6h.21a6,6,0,0,0,5.95-6V38.68a6.16,6.16,0,0,1,1.91-4.56,6.52,6.52,0,0,1,9.18,0A6.16,6.16,0,0,1,165,38.68l-.06,12.47a18,18,0,0,1-5.51,13.29A18.3,18.3,0,0,1,146,69.92h-.12a18.46,18.46,0,0,1-12.46-4.79,18.15,18.15,0,0,1-12.29,4.79h-.23a18.3,18.3,0,0,1-13.41-5.48A18,18,0,0,1,102,51.15V38.67a6.19,6.19,0,0,1,1.88-4.57,6.64,6.64,0,0,1,9.24,0A6.19,6.19,0,0,1,115,38.67V51.26a5.64,5.64,0,0,0,1.76,4.2,5.89,5.89,0,0,0,4.18,1.73h.16a5.9,5.9,0,0,0,5.9-5.84V38.62a6.55,6.55,0,0,1,6.5-6.53m0-1h0A7.56,7.56,0,0,0,126,38.62V51.31a4.91,4.91,0,0,1-4.9,4.88h-.16a4.89,4.89,0,0,1-3.47-1.43A4.69,4.69,0,0,1,116,51.28V38.67a7.15,7.15,0,0,0-2.18-5.29,7.7,7.7,0,0,0-5.33-2.15,7.6,7.6,0,0,0-5.31,2.15A7.16,7.16,0,0,0,101,38.69V51.15a19,19,0,0,0,5.8,14,19.38,19.38,0,0,0,14.12,5.77h.23a19.06,19.06,0,0,0,12.29-4.47,19.45,19.45,0,0,0,12.46,4.47H146a19.38,19.38,0,0,0,14.11-5.77,19,19,0,0,0,5.8-14L166,38.68a7.2,7.2,0,0,0-2.22-5.28,7.5,7.5,0,0,0-10.57,0A7.17,7.17,0,0,0,151,38.7V51.21a5,5,0,0,1-4.95,5h-.21a4.92,4.92,0,0,1-4.84-5V38.53a7.21,7.21,0,0,0-2.22-5.28,7.42,7.42,0,0,0-5.28-2.16Z"/><path class="cls-1" d="M174,72a6.86,6.86,0,0,1-4.87-2,6.94,6.94,0,0,1-.1-9.81l.1-.1A6.76,6.76,0,0,1,174,58h14.18a5,5,0,0,0,4.29-2c.12-.17.48-.72,1.08-1.62l1.6-2.41a6.36,6.36,0,0,1,5.2-2.43h.12a7,7,0,0,1,4.9,2A6.88,6.88,0,0,1,207,58.9a18.66,18.66,0,0,1-7.29,9.45A20,20,0,0,1,188.14,72Zm.08-17.56a6.81,6.81,0,0,1-4.86-2,6.89,6.89,0,0,1-1.65-7.33,18.52,18.52,0,0,1,7.32-9.43A19.93,19.93,0,0,1,186.44,32h14.12a6.89,6.89,0,0,1,4.87,2,7.11,7.11,0,0,1,2,5,7,7,0,0,1-6.93,7H186.41A5.32,5.32,0,0,0,182,48c-.68,1.1-1.41,2.23-2.13,3.33l-.44.67a6.44,6.44,0,0,1-5.28,2.43Z"/><path class="cls-2" d="M200.56,32.5a6.37,6.37,0,0,1,4.51,1.9A6.51,6.51,0,0,1,207,39,6.13,6.13,0,0,1,205,43.6a6.24,6.24,0,0,1-4.5,1.9H186.41a5.79,5.79,0,0,0-4.77,2.2c-.85,1.38-1.74,2.72-2.6,4a5.92,5.92,0,0,1-4.86,2.2h-.11a6.42,6.42,0,0,1-4.51-1.89,6.21,6.21,0,0,1-1.93-4.59,5.84,5.84,0,0,1,.4-2.2,17.89,17.89,0,0,1,7.13-9.21,19.55,19.55,0,0,1,11.28-3.55h14.12M200.46,50A6.43,6.43,0,0,1,205,51.91a6,6,0,0,1,1.94,4.6,6.08,6.08,0,0,1-.4,2.2,18.07,18.07,0,0,1-7.12,9.23,19.54,19.54,0,0,1-11.28,3.56H174a6.5,6.5,0,0,1-4.61-11l.09-.09A6.26,6.26,0,0,1,174,58.5h14.19a5.44,5.44,0,0,0,4.69-2.21c.22-.3,1.11-1.65,2.7-4A5.83,5.83,0,0,1,200.34,50h.12m.1-18.54H186.44a20.5,20.5,0,0,0-11.86,3.73,19.11,19.11,0,0,0-7.5,9.7,7.07,7.07,0,0,0-.45,2.53,7.21,7.21,0,0,0,2.24,5.31,7.3,7.3,0,0,0,5.2,2.17h.13a6.9,6.9,0,0,0,5.62-2.57l.06-.08.45-.69c.7-1.08,1.43-2.19,2.13-3.32a4.82,4.82,0,0,1,3.95-1.78h14.13A7.53,7.53,0,0,0,208,39a7.57,7.57,0,0,0-2.19-5.31,7.36,7.36,0,0,0-5.22-2.19ZM200.46,49h-.13a6.82,6.82,0,0,0-5.55,2.57l-.05.08-1.59,2.39c-.61.91-1,1.46-1.1,1.64a4.46,4.46,0,0,1-3.87,1.78H174a7.27,7.27,0,0,0-5.23,2.2l-.08.09A7.5,7.5,0,0,0,174,72.5h14.15A20.49,20.49,0,0,0,200,68.76,19.2,19.2,0,0,0,207.48,59a6.86,6.86,0,0,0,.46-2.53,7,7,0,0,0-2.27-5.34A7.42,7.42,0,0,0,200.46,49Z"/><path class="cls-1" d="M227.41,72A19.79,19.79,0,0,1,207.5,52.12V25.89a6.79,6.79,0,0,1,2-5,6.87,6.87,0,0,1,4.88-2h.22A6.55,6.55,0,0,1,219.45,21a6.92,6.92,0,0,1,2.05,5V32h18.87a6.74,6.74,0,0,1,4.83,2.06,7,7,0,0,1,.09,9.79l-.45-.26.36.35A6.64,6.64,0,0,1,240.37,46H221.5v6.12a5.61,5.61,0,0,0,1.73,4.16,5.73,5.73,0,0,0,4.1,1.72h13.06a6.78,6.78,0,0,1,4.84,2,7,7,0,0,1,2,5,7,7,0,0,1-6.89,7Z"/><path class="cls-2" d="M214.42,19.38h.22a6.11,6.11,0,0,1,4.45,1.93A6.44,6.44,0,0,1,221,26V32.5h19.37a6.21,6.21,0,0,1,4.47,1.91,6.46,6.46,0,0,1,.09,9.09l-.09.09a6.14,6.14,0,0,1-4.47,1.91H221v6.62a6.14,6.14,0,0,0,1.88,4.52,6.25,6.25,0,0,0,4.45,1.86H240.4a6.32,6.32,0,0,1,4.47,1.89A6.48,6.48,0,0,1,246.76,65a6.51,6.51,0,0,1-6.39,6.47h-13A19.29,19.29,0,0,1,208,52.12V25.89a6.3,6.3,0,0,1,1.88-4.64,6.43,6.43,0,0,1,4.54-1.87m0-1a7.43,7.43,0,0,0-5.25,2.17A7.25,7.25,0,0,0,207,25.91V52.12A20.28,20.28,0,0,0,227.41,72.5h13A7.51,7.51,0,0,0,247.76,65a7.46,7.46,0,0,0-2.17-5.31,7.28,7.28,0,0,0-5.19-2.2H227.33a5.22,5.22,0,0,1-3.73-1.56,5.11,5.11,0,0,1-1.6-3.8V46.5h18.37a7.13,7.13,0,0,0,5.19-2.21l.05,0,0,0a7.48,7.48,0,0,0-.1-10.52,7.29,7.29,0,0,0-5.18-2.19H222V26a7.45,7.45,0,0,0-2.22-5.36,7.12,7.12,0,0,0-5.14-2.21h-.22Z"/><path class="cls-1" d="M254.5,70.84a7,7,0,0,1-4.94-2,6.65,6.65,0,0,1-2.06-4.92V43A6.67,6.67,0,0,1,249.57,38a7,7,0,0,1,9.87,0A6.67,6.67,0,0,1,261.5,43V63.89a6.66,6.66,0,0,1-2.07,4.92A6.94,6.94,0,0,1,254.5,70.84Zm.13-38.11a6.78,6.78,0,0,1-4.84-2,6.73,6.73,0,0,1,0-9.62,6.84,6.84,0,0,1,9.66,0,6.73,6.73,0,0,1,0,9.62A6.75,6.75,0,0,1,254.63,32.73Z"/><path class="cls-2" d="M254.63,19.62a6.33,6.33,0,0,1,4.48,1.85,6.24,6.24,0,0,1,0,8.91,6.39,6.39,0,0,1-9,0,6.24,6.24,0,0,1,0-8.91,6.35,6.35,0,0,1,4.49-1.85m-.13,16.9a6.48,6.48,0,0,1,4.59,1.89A6.12,6.12,0,0,1,261,43V63.89a6.16,6.16,0,0,1-1.91,4.56,6.52,6.52,0,0,1-9.18,0A6.16,6.16,0,0,1,248,63.89V43a6.12,6.12,0,0,1,1.91-4.55,6.48,6.48,0,0,1,4.59-1.89m.13-17.9a7.28,7.28,0,0,0-5.19,2.14,7.23,7.23,0,0,0,0,10.34,7.38,7.38,0,0,0,10.37,0,7.23,7.23,0,0,0,0-10.33,7.25,7.25,0,0,0-5.17-2.13Zm-.13,16.9a7.39,7.39,0,0,0-5.29,2.18A7.17,7.17,0,0,0,247,43V63.89a7.2,7.2,0,0,0,2.22,5.28,7.5,7.5,0,0,0,10.57,0A7.17,7.17,0,0,0,262,63.87V43a7.2,7.2,0,0,0-2.22-5.28,7.42,7.42,0,0,0-5.28-2.16Z"/><path class="cls-1" d="M269.5,71.82a6.88,6.88,0,0,1-4.94-2,6.72,6.72,0,0,1-2.06-5V26A6.7,6.7,0,0,1,264.57,21a7,7,0,0,1,9.87,0A6.74,6.74,0,0,1,276.5,26V45H282c2.5,0,4.15-1,5-3.06.56-1.9,1.19-3.92,1.9-6.14,1.08-2.42,3.08-3.62,6-3.62h.11a6.71,6.71,0,0,1,4.84,2.08A6.57,6.57,0,0,1,302,39.18a19.09,19.09,0,0,1-6.3,14.43l5.06,7.11a7.05,7.05,0,0,1-.82,9,6.67,6.67,0,0,1-4.83,2.08h-.12a6.72,6.72,0,0,1-5.74-3.06L282.39,59H276.5v5.83a6.72,6.72,0,0,1-2.07,5A6.87,6.87,0,0,1,269.5,71.82Z"/><path class="cls-2" d="M269.5,19.49a6.46,6.46,0,0,1,4.59,1.91A6.19,6.19,0,0,1,276,26V45.5h6a5.45,5.45,0,0,0,5.5-3.36c.61-2,1.25-4.1,1.92-6.18,1-2.18,2.79-3.28,5.49-3.28h.11a6.22,6.22,0,0,1,4.48,1.93,6.11,6.11,0,0,1,1.91,4.56A18.51,18.51,0,0,1,295,53.54L300.3,61a6.58,6.58,0,0,1-.76,8.38,6.22,6.22,0,0,1-4.48,1.93H295a6.2,6.2,0,0,1-5.34-2.85l-7-10H276v6.33a6.2,6.2,0,0,1-1.91,4.59,6.49,6.49,0,0,1-9.18,0A6.2,6.2,0,0,1,263,64.83V26a6.19,6.19,0,0,1,1.91-4.58,6.46,6.46,0,0,1,4.59-1.91m0-1a7.41,7.41,0,0,0-5.3,2.2A7.26,7.26,0,0,0,262,26V64.83a7.25,7.25,0,0,0,2.22,5.31,7.48,7.48,0,0,0,10.58,0,7.25,7.25,0,0,0,2.2-5.31V59.5h5.13L288.79,69A7.19,7.19,0,0,0,295,72.32h.11a7.24,7.24,0,0,0,5.2-2.23,7.55,7.55,0,0,0,.86-9.65l-4.81-6.76a19.53,19.53,0,0,0,6.14-14.51,7.05,7.05,0,0,0-2.21-5.27,7.18,7.18,0,0,0-5.18-2.22h-.12a6.49,6.49,0,0,0-6.4,3.87l0,.1c-.71,2.21-1.33,4.22-1.9,6.14-.82,1.85-2.27,2.71-4.56,2.71h-5V26a7.27,7.27,0,0,0-2.22-5.31,7.39,7.39,0,0,0-5.28-2.18Z"/></svg>