<?xml version="1.0" encoding="utf-8"?>
<!-- Generator: Adobe Illustrator 24.2.0, SVG Export Plug-In . SVG Version: 6.00 Build 0)  -->
<svg version="1.1" id="Layer_1" xmlns="http://www.w3.org/2000/svg" xmlns:xlink="http://www.w3.org/1999/xlink" x="0px" y="0px"
	 viewBox="0 0 96 96" style="enable-background:new 0 0 96 96;" xml:space="preserve">
<style type="text/css">
	.st0{fill:#ABBACA;}
</style>
<path class="st0" d="M80,23.1c0-3.9-3.2-7.1-7.1-7.1H23.1c-3.9,0-7.1,3.2-7.1,7.1v49.8c0,3.9,3.2,7.1,7.1,7.1h49.8
	c3.9,0,7.1-3.2,7.1-7.1V23.1z M72.9,64c0,1-0.8,1.7-1.7,1.8c0,0,0,0,0,0c-0.5,0-1.1-0.2-1.4-0.7L55.5,47.8c-0.3-0.4-0.8-0.7-1.4-0.7
	c-0.5,0-1.1,0.2-1.4,0.7l-8.1,10c-0.3,0.4-0.8,0.7-1.4,0.7c-0.6,0-1.1-0.3-1.4-0.7L38.2,53c-0.4-0.4-0.9-0.7-1.5-0.7
	c-0.6,0-1.1,0.3-1.4,0.7l-9,12c-0.3,0.4-0.9,0.7-1.4,0.7c-1,0-1.8-0.7-1.8-1.7c0,0,0,0,0-0.1V23.1h49.8V64z M39.1,44.4
	c2.9,0,5.3-2.4,5.3-5.3s-2.4-5.3-5.3-5.3s-5.3,2.4-5.3,5.3S36.2,44.4,39.1,44.4z"/>
</svg>
