<?xml version="1.0" encoding="utf-8"?>
<!-- Generator: Adobe Illustrator 24.2.0, SVG Export Plug-In . SVG Version: 6.00 Build 0)  -->
<svg fill="current" stroke="current" version="1.1" id="Layer_1" xmlns="http://www.w3.org/2000/svg" xmlns:xlink="http://www.w3.org/1999/xlink" x="0px" y="0px"
	 viewBox="0 0 36 36" style="enable-background:new 0 0 36 36;" xml:space="preserve">
<style type="text/css">
	.st0{fill:#2C2D63;}
</style>
<path class="st0" d="M31.2,14.9h-7.7c-0.4,0-0.8-0.3-0.8-0.8v-0.5c0-0.2,0.1-0.4,0.2-0.6l2.8-2.8C23.7,8.1,20.9,7,18,7
	C11.6,7,6.5,12.6,7.2,19.1c0.5,4.9,4.4,8.9,9.3,9.6c6.4,0.9,12-3.8,12.4-10.1c0-0.4,0.4-0.7,0.8-0.7h1.6c0.2,0,0.4,0.1,0.6,0.2
	c0.1,0.2,0.2,0.4,0.2,0.6c-0.5,8.2-8,14.4-16.4,13C9.2,30.7,4.4,25.2,4,18.8C3.6,10.3,10.6,3.5,18.8,4c3.4,0.2,6.7,1.7,9.1,4.1
	l2.3-2.3c0.1-0.1,0.3-0.2,0.5-0.2h0.5c0.4,0,0.8,0.3,0.8,0.8v7.7C32,14.5,31.6,14.9,31.2,14.9z"/>
<circle class="st0" cx="18" cy="18" r="2"/>
</svg>
