<?xml version="1.0" encoding="utf-8"?>
<!-- Generator: Adobe Illustrator 24.2.0, SVG Export Plug-In . SVG Version: 6.00 Build 0)  -->
<svg version="1.1" id="Layer_1" xmlns="http://www.w3.org/2000/svg" xmlns:xlink="http://www.w3.org/1999/xlink" x="0px" y="0px"
	 viewBox="0 0 36 36" style="enable-background:new 0 0 36 36;" xml:space="preserve">
<style type="text/css">
	.st0{fill:#2C2E63;}
</style>
<path class="st0" d="M23.8,8.2L23.8,8.2l5.2,5.6L18,27L7.1,13.8l5.2-5.6L23.8,8.2 M23.8,5.4H12.2c-0.8,0-1.5,0.3-2.1,0.9l-5.8,6.3
	c-0.2,0.3-0.4,0.6-0.4,1V14c0,0.3,0.1,0.6,0.3,0.9l12.6,15.2c0.3,0.3,0.7,0.5,1.1,0.5l0,0c0.4,0,0.8-0.2,1.1-0.5l12.6-15.2
	c0.2-0.3,0.3-0.6,0.3-0.9v-0.4c0-0.4-0.1-0.7-0.4-1l-5.8-6.3C25.3,5.7,24.5,5.4,23.8,5.4z"/>
</svg>
