<?xml version="1.0" encoding="utf-8"?>
<!-- Generator: Adobe Illustrator 24.2.0, SVG Export Plug-In . SVG Version: 6.00 Build 0)  -->
<svg version="1.1" id="Layer_1" xmlns="http://www.w3.org/2000/svg" xmlns:xlink="http://www.w3.org/1999/xlink" x="0px" y="0px"
	 viewBox="0 0 36 36" style="enable-background:new 0 0 36 36;" xml:space="preserve">
<style type="text/css">
	.st0{fill:#2C2E63;}
</style>
<path class="st0" d="M13.8,27.8c0,0.4-0.3,0.7-0.7,0.7h-1.4c-0.4,0-0.7-0.3-0.7-0.7V10.3H4.7C4.3,10.3,4,10,4,9.6V8.2
	c0-0.4,0.3-0.7,0.7-0.7h15.4c0.4,0,0.7,0.3,0.7,0.7v1.4c0,0.4-0.3,0.7-0.7,0.7h-6.3C13.8,10.3,13.8,27.8,13.8,27.8z M26.4,15.9h4.9
	c0.4,0,0.7-0.3,0.7-0.7v-1.4c0-0.4-0.3-0.7-0.7-0.7H18.7c-0.4,0-0.7,0.3-0.7,0.7v1.4c0,0.4,0.3,0.7,0.7,0.7h4.9v11.9
	c0,0.4,0.3,0.7,0.7,0.7h1.4c0.4,0,0.7-0.3,0.7-0.7C26.4,27.8,26.4,15.9,26.4,15.9z"/>
</svg>
