<?xml version="1.0" encoding="utf-8"?>
<!-- Generator: Adobe Illustrator 24.2.0, SVG Export Plug-In . SVG Version: 6.00 Build 0)  -->
<svg version="1.1" id="Layer_1" xmlns="http://www.w3.org/2000/svg" xmlns:xlink="http://www.w3.org/1999/xlink" x="0px" y="0px"
	 viewBox="0 0 36 36" style="enable-background:new 0 0 36 36;" xml:space="preserve">
<style type="text/css">
	.st0{fill:#2C2E63;}
</style>
<path class="st0" d="M32,22.8c0,0.4-0.3,0.7-0.6,0.8c0,0,0,0-0.1,0h-2.1c-0.4,0-0.7-0.3-0.7-0.6c-0.4-3.9-4.6-7.1-9.8-7.1
	c-2.6,0-5.2,0.9-7.3,2.6L15,22c0.1,0.1,0.2,0.3,0.2,0.5v0.4c0,0.4-0.3,0.7-0.7,0.7H4.7c-0.4,0-0.7-0.3-0.7-0.7v-9.8
	c0-0.4,0.3-0.7,0.7-0.7l0,0h0.4c0.2,0,0.4,0.1,0.5,0.2L9,16c2.7-2.4,6.2-3.7,9.8-3.6C25.8,12.4,31.5,17,32,22.8z"/>
</svg>
